<?xml version="1.0" encoding="UTF-8"?><svg xmlns="http://www.w3.org/2000/svg" viewBox="0 0 1200 696"><defs><style>.cls-1{fill:#ff9c2e;}.cls-2{fill:#fff;}.cls-3{fill:#202020;}</style></defs><g id="BG"><rect class="cls-2" width="1200" height="696"/></g><g id="Artwork"><g id="darkmode-duo"><path class="cls-1" d="M738.9,396.18V203.44h37.63v192.74h-37.63Z"/><g><path class="cls-3" d="M332.73,444.37h-80.67V251.63h77.42c37.63,0,59.56,21.11,59.56,54.14,0,21.39-14.08,35.19-23.82,39.79,11.64,5.41,26.53,17.6,26.53,43.31,0,36-24.63,55.5-59.01,55.5Zm-6.23-159.18h-36.82v44.4h36.82c15.97,0,24.91-8.93,24.91-22.2s-8.93-22.2-24.91-22.2Zm2.44,78.24h-39.25v47.37h39.25c17.05,0,25.18-10.83,25.18-23.82s-8.12-23.55-25.18-23.55Z"/><path class="cls-3" d="M492.51,365.32v79.05h-37.36v-79.05l-57.93-113.7h40.88l36,77.69,35.46-77.69h40.88l-57.93,113.7Z"/><path class="cls-3" d="M650.87,444.37h-80.67V251.63h77.42c37.63,0,59.56,21.11,59.56,54.14,0,21.39-14.08,35.19-23.82,39.79,11.64,5.41,26.53,17.6,26.53,43.31,0,36-24.63,55.5-59.01,55.5Zm-6.23-159.18h-36.82v44.4h36.82c15.97,0,24.91-8.93,24.91-22.2s-8.93-22.2-24.91-22.2Zm2.44,78.24h-39.25v47.37h39.25c17.05,0,25.18-10.83,25.18-23.82s-8.12-23.55-25.18-23.55Z"/><path class="cls-3" d="M897.59,285.2v159.18h-37.63v-159.18h-50.35v-33.57h138.33v33.57h-50.35Z"/></g></g></g></svg>